<svg width="71" height="15" viewBox="0 0 71 15" fill="none" xmlns="http://www.w3.org/2000/svg">
<path d="M6.89455 1.36396C7.07132 1.07965 7.48511 1.07965 7.66188 1.36396L9.52734 4.36428C9.58953 4.46432 9.68834 4.5361 9.80269 4.56434L13.2326 5.41135C13.5576 5.49161 13.6855 5.88515 13.4697 6.14112L11.1927 8.84243C11.1168 8.93249 11.0791 9.04865 11.0876 9.16613L11.3419 12.6899C11.366 13.0238 11.0312 13.2671 10.7211 13.141L7.44839 11.8101C7.33928 11.7658 7.21715 11.7658 7.10803 11.8101L3.8353 13.141C3.52518 13.2671 3.19041 13.0238 3.21451 12.6899L3.46887 9.16613C3.47735 9.04865 3.43961 8.93249 3.3637 8.84243L1.08668 6.14112C0.870907 5.88515 0.998775 5.49161 1.3238 5.41135L4.75373 4.56434C4.86809 4.5361 4.96689 4.46432 5.02909 4.36428L6.89455 1.36396Z" fill="#FFC833"/>
<path d="M20.8994 1.36396C21.0762 1.07965 21.49 1.07965 21.6668 1.36396L23.5322 4.36428C23.5944 4.46432 23.6932 4.5361 23.8076 4.56434L27.2375 5.41135C27.5625 5.49161 27.6904 5.88515 27.4746 6.14112L25.1976 8.84243C25.1217 8.93249 25.084 9.04865 25.0924 9.16613L25.3468 12.6899C25.3709 13.0238 25.0361 13.2671 24.726 13.141L21.4533 11.8101C21.3442 11.7658 21.222 11.7658 21.1129 11.8101L17.8402 13.141C17.5301 13.2671 17.1953 13.0238 17.2194 12.6899L17.4738 9.16613C17.4822 9.04865 17.4445 8.93249 17.3686 8.84243L15.0916 6.14112C14.8758 5.88515 15.0037 5.49161 15.3287 5.41135L18.7586 4.56434C18.873 4.5361 18.9718 4.46432 19.034 4.36428L20.8994 1.36396Z" fill="#FFC833"/>
<path d="M34.9048 1.36396C35.0816 1.07965 35.4954 1.07965 35.6721 1.36396L37.5376 4.36428C37.5998 4.46432 37.6986 4.5361 37.8129 4.56434L41.2429 5.41135C41.5679 5.49161 41.6958 5.88515 41.48 6.14112L39.203 8.84243C39.1271 8.93249 39.0893 9.04865 39.0978 9.16613L39.3522 12.6899C39.3763 13.0238 39.0415 13.2671 38.7314 13.141L35.4586 11.8101C35.3495 11.7658 35.2274 11.7658 35.1183 11.8101L31.8456 13.141C31.5354 13.2671 31.2007 13.0238 31.2248 12.6899L31.4791 9.16613C31.4876 9.04865 31.4499 8.93249 31.374 8.84243L29.0969 6.14112C28.8812 5.88515 29.009 5.49161 29.3341 5.41135L32.764 4.56434C32.8783 4.5361 32.9771 4.46432 33.0393 4.36428L34.9048 1.36396Z" fill="#FFC833"/>
<path d="M48.9097 1.36396C49.0865 1.07965 49.5002 1.07965 49.677 1.36396L51.5425 4.36428C51.6047 4.46432 51.7035 4.5361 51.8178 4.56434L55.2478 5.41135C55.5728 5.49161 55.7007 5.88515 55.4849 6.14112L53.2079 8.84243C53.1319 8.93249 53.0942 9.04865 53.1027 9.16613L53.357 12.6899C53.3812 13.0238 53.0464 13.2671 52.7363 13.141L49.4635 11.8101C49.3544 11.7658 49.2323 11.7658 49.1232 11.8101L45.8504 13.141C45.5403 13.2671 45.2055 13.0238 45.2297 12.6899L45.484 9.16613C45.4925 9.04865 45.4548 8.93249 45.3788 8.84243L43.1018 6.14112C42.886 5.88515 43.0139 5.49161 43.3389 5.41135L46.7689 4.56434C46.8832 4.5361 46.982 4.46432 47.0442 4.36428L48.9097 1.36396Z" fill="#FFC833"/>
<path d="M62.9146 1.36396C63.0913 1.07965 63.5051 1.07965 63.6819 1.36396L65.5474 4.36428C65.6096 4.46432 65.7084 4.5361 65.8227 4.56434L69.2526 5.41135C69.5777 5.49161 69.7055 5.88515 69.4898 6.14112L67.2127 8.84243C67.1368 8.93249 67.0991 9.04865 67.1076 9.16613L67.3619 12.6899C67.386 13.0238 67.0513 13.2671 66.7411 13.141L63.4684 11.8101C63.3593 11.7658 63.2372 11.7658 63.1281 11.8101L59.8553 13.141C59.5452 13.2671 59.2104 13.0238 59.2345 12.6899L59.4889 9.16613C59.4974 9.04865 59.4596 8.93249 59.3837 8.84243L57.1067 6.14112C56.8909 5.88515 57.0188 5.49161 57.3438 5.41135L60.7738 4.56434C60.8881 4.5361 60.9869 4.46432 61.0491 4.36428L62.9146 1.36396Z" fill="#FFC833"/>
</svg>
